<svg height="512" viewBox="0 0 44 56" width="512" xmlns="http://www.w3.org/2000/svg"><g id="Page-1" fill="none" fill-rule="evenodd"><g id="028---Book-Accommodation" fill="rgb(0,0,0)" fill-rule="nonzero"><path id="Shape" d="m11 42c0-.5522847-.4477153-1-1-1h-1v2h1c.5522847 0 1-.4477153 1-1z"/><path id="Rectangle-path" d="m25 13h6v2h-6z"/><path id="Shape" d="m8 47h28c2.209139 0 4-1.790861 4-4v-6c0-2.209139-1.790861-4-4-4h-28c-2.209139 0-4 1.790861-4 4v6c0 2.209139 1.790861 4 4 4zm23-11c0-.5522847.4477153-1 1-1s1 .4477153 1 1v1.586l2.293-2.293c.3923789-.3789722 1.0160848-.3735524 1.4018186.0121814s.3911536 1.0094397.0121814 1.4018186l-3.293 3.293 3.293 3.293c.2599566.2510745.3642126.6228779.2726972.9725073-.0915155.3496295-.3645604.6226744-.7141899.7141899-.3496294.0915154-.7214328-.0127406-.9725073-.2726972l-2.293-2.293v1.586c0 .5522847-.4477153 1-1 1s-1-.4477153-1-1zm-8 2c0-1.6568542 1.3431458-3 3-3s3 1.3431458 3 3v4c0 1.6568542-1.3431458 3-3 3s-3-1.3431458-3-3zm-8 0c0-1.6568542 1.3431458-3 3-3s3 1.3431458 3 3v4c0 1.6568542-1.3431458 3-3 3s-3-1.3431458-3-3zm-8 2v-4c0-.5522847.44771525-1 1-1h2c1.1856144-.005247 2.2620981.691231 2.7432243 1.7748484.4811261 1.0836175.2758048 2.3492169-.5232243 3.2251516.7990291.8759347 1.0043504 2.1415341.5232243 3.2251516-.4811262 1.0836174-1.5576099 1.7800954-2.7432243 1.7748484h-2c-.55228475 0-1-.4477153-1-1z"/><path id="Shape" d="m11 38c0-.5522847-.4477153-1-1-1h-1v2h1c.5522847 0 1-.4477153 1-1z"/><path id="Shape" d="m3 53c-1.08546927-.0036768-2.13961114-.3641933-3-1.026v.026c0 2.209139 1.790861 4 4 4h36c2.209139 0 4-1.790861 4-4v-.026c-.8603889.6618067-1.9145307 1.0223232-3 1.026z"/><path id="Shape" d="m26 43c.5522847 0 1-.4477153 1-1v-4c0-.5522847-.4477153-1-1-1s-1 .4477153-1 1v4c0 .5522847.4477153 1 1 1z"/><path id="Shape" d="m18 43c.5522847 0 1-.4477153 1-1v-4c0-.5522847-.4477153-1-1-1s-1 .4477153-1 1v4c0 .5522847.4477153 1 1 1z"/><path id="Shape" d="m0 48c0 1.6568542 1.34314575 3 3 3h38c1.6568542 0 3-1.3431458 3-3v-20h-44zm2-11c.00330738-3.3123376 2.68766243-5.9966926 6-6h28c3.3123376.0033074 5.9966926 2.6876624 6 6v6c-.0033074 3.3123376-2.6876624 5.9966926-6 6h-28c-3.31233757-.0033074-5.99669262-2.6876624-6-6z"/><path id="Shape" d="m0 26h44v-18h-44zm9-6v-2c.00525139-1.2667854.80564913-2.3937454 2-2.816v-2.184c0-1.1045695.8954305-2 2-2h6c1.1045695 0 2 .8954305 2 2v2h2v-2c0-1.1045695.8954305-2 2-2h6c1.1045695 0 2 .8954305 2 2v2.184c1.1943509.4222546 1.9947486 1.5492146 2 2.816v5c0 .5522847-.4477153 1-1 1s-1-.4477153-1-1v-2h-22v2c0 .5522847-.4477153 1-1 1-.55228475 0-1-.4477153-1-1z"/><path id="Rectangle-path" d="m13 13h6v2h-6z"/><path id="Shape" d="m33 18c0-.5522847-.4477153-1-1-1h-20c-.5522847 0-1 .4477153-1 1v1h22z"/><path id="Shape" d="m40 0h-36c-2.209139 0-4 1.790861-4 4v2h44v-2c0-2.209139-1.790861-4-4-4zm-21 4c-.5522847 0-1-.44771525-1-1s.4477153-1 1-1 1 .44771525 1 1-.4477153 1-1 1zm7 0h-3c-.5522847 0-1-.44771525-1-1s.4477153-1 1-1h3c.5522847 0 1 .44771525 1 1s-.4477153 1-1 1z"/></g></g></svg>